<?xml version="1.0" encoding="us-ascii" standalone="no"?><svg xmlns="http://www.w3.org/2000/svg" xmlns:xlink="http://www.w3.org/1999/xlink" contentStyleType="text/css" height="1942px" preserveAspectRatio="none" style="width:1262px;height:1942px;background:#FFFFFF;" version="1.1" viewBox="0 0 1262 1942" width="1262px" zoomAndPan="magnify"><defs/><g><rect fill="none" height="350.5938" style="stroke:#000000;stroke-width:1.5;" width="1105.5" x="30" y="111.5625"/><rect fill="none" height="133.6641" style="stroke:#000000;stroke-width:1.5;" width="701" x="30" y="476.1563"/><rect fill="none" height="133.6641" style="stroke:#000000;stroke-width:1.5;" width="701" x="30" y="623.8203"/><rect fill="none" height="941.8516" style="stroke:#000000;stroke-width:1.5;" width="1246.5" x="10" y="771.4844"/><rect fill="none" height="706.7891" style="stroke:#000000;stroke-width:1.5;" width="1226.5" x="20" y="999.5469"/><rect fill="none" height="498.8594" style="stroke:#000000;stroke-width:1.5;" width="388.5" x="848" y="1023.6797"/><rect fill="none" height="247.9297" style="stroke:#000000;stroke-width:1.5;" width="368.5" x="858" y="1047.8125"/><rect fill="none" height="59.2656" style="stroke:#000000;stroke-width:1.5;" width="223.5" x="868" y="1156.2109"/><rect fill="none" height="59.2656" style="stroke:#000000;stroke-width:1.5;" width="323.5" x="868" y="1229.4766"/><rect fill="none" height="205.7969" style="stroke:#000000;stroke-width:1.5;" width="343.5" x="858" y="1309.7422"/><rect fill="none" height="59.2656" style="stroke:#000000;stroke-width:1.5;" width="223.5" x="868" y="1376.0078"/><rect fill="none" height="59.2656" style="stroke:#000000;stroke-width:1.5;" width="323.5" x="868" y="1449.2734"/><rect fill="none" height="104.5313" style="stroke:#000000;stroke-width:1.5;" width="925" x="30" y="1536.5391"/><rect fill="none" height="162.7969" style="stroke:#000000;stroke-width:1.5;" width="925" x="30" y="1727.3359"/><line style="stroke:#181818;stroke-width:0.5;stroke-dasharray:5.0,5.0;" x1="62" x2="62" y1="36.2969" y2="1907.1328"/><line style="stroke:#181818;stroke-width:0.5;stroke-dasharray:5.0,5.0;" x1="400.5" x2="400.5" y1="36.2969" y2="1907.1328"/><line style="stroke:#181818;stroke-width:0.5;stroke-dasharray:5.0,5.0;" x1="675" x2="675" y1="36.2969" y2="1907.1328"/><line style="stroke:#181818;stroke-width:0.5;stroke-dasharray:5.0,5.0;" x1="911" x2="911" y1="36.2969" y2="1907.1328"/><rect fill="#E2E2F0" height="30.2969" rx="2.5" ry="2.5" style="stroke:#181818;stroke-width:0.5;" width="45" x="40" y="5"/><text fill="#000000" font-family="sans-serif" font-size="14" lengthAdjust="spacing" textLength="31" x="47" y="24.9951">User</text><rect fill="#E2E2F0" height="30.2969" rx="2.5" ry="2.5" style="stroke:#181818;stroke-width:0.5;" width="45" x="40" y="1906.1328"/><text fill="#000000" font-family="sans-serif" font-size="14" lengthAdjust="spacing" textLength="31" x="47" y="1926.1279">User</text><rect fill="#E2E2F0" height="30.2969" rx="2.5" ry="2.5" style="stroke:#181818;stroke-width:0.5;" width="48" x="376.5" y="5"/><text fill="#000000" font-family="sans-serif" font-size="14" lengthAdjust="spacing" textLength="34" x="383.5" y="24.9951">View</text><rect fill="#E2E2F0" height="30.2969" rx="2.5" ry="2.5" style="stroke:#181818;stroke-width:0.5;" width="48" x="376.5" y="1906.1328"/><text fill="#000000" font-family="sans-serif" font-size="14" lengthAdjust="spacing" textLength="34" x="383.5" y="1926.1279">View</text><rect fill="#E2E2F0" height="30.2969" rx="2.5" ry="2.5" style="stroke:#181818;stroke-width:0.5;" width="91" x="630" y="5"/><text fill="#000000" font-family="sans-serif" font-size="14" lengthAdjust="spacing" textLength="77" x="637" y="24.9951">ViewModel</text><rect fill="#E2E2F0" height="30.2969" rx="2.5" ry="2.5" style="stroke:#181818;stroke-width:0.5;" width="91" x="630" y="1906.1328"/><text fill="#000000" font-family="sans-serif" font-size="14" lengthAdjust="spacing" textLength="77" x="637" y="1926.1279">ViewModel</text><rect fill="#E2E2F0" height="30.2969" rx="2.5" ry="2.5" style="stroke:#181818;stroke-width:0.5;" width="67" x="878" y="5"/><text fill="#000000" font-family="sans-serif" font-size="14" lengthAdjust="spacing" textLength="53" x="885" y="24.9951">Service</text><rect fill="#E2E2F0" height="30.2969" rx="2.5" ry="2.5" style="stroke:#181818;stroke-width:0.5;" width="67" x="878" y="1906.1328"/><text fill="#000000" font-family="sans-serif" font-size="14" lengthAdjust="spacing" textLength="53" x="885" y="1926.1279">Service</text><polygon fill="#181818" points="388.5,63.4297,398.5,67.4297,388.5,71.4297,392.5,67.4297" style="stroke:#181818;stroke-width:1.0;"/><line style="stroke:#181818;stroke-width:1.0;" x1="62.5" x2="394.5" y1="67.4297" y2="67.4297"/><text fill="#000000" font-family="sans-serif" font-size="13" lengthAdjust="spacing" textLength="150" x="69.5" y="62.3638">Ex&#233;cution de EasySave</text><polygon fill="#181818" points="73.5,92.5625,63.5,96.5625,73.5,100.5625,69.5,96.5625" style="stroke:#181818;stroke-width:1.0;"/><line style="stroke:#181818;stroke-width:1.0;" x1="67.5" x2="399.5" y1="96.5625" y2="96.5625"/><text fill="#000000" font-family="sans-serif" font-size="13" lengthAdjust="spacing" textLength="314" x="79.5" y="91.4966">Affichage planification sauvegardes &#224; l'utilisateur</text><path d="M30,111.5625 L261,111.5625 L261,118.6953 L251,128.6953 L30,128.6953 L30,111.5625 " fill="#EEEEEE" style="stroke:#000000;stroke-width:1.5;"/><rect fill="none" height="350.5938" style="stroke:#000000;stroke-width:1.5;" width="1105.5" x="30" y="111.5625"/><text fill="#000000" font-family="sans-serif" font-size="13" font-weight="bold" lengthAdjust="spacing" textLength="186" x="45" y="124.6294">Planifier une sauvegarde</text><polygon fill="#181818" points="388.5,145.8281,398.5,149.8281,388.5,153.8281,392.5,149.8281" style="stroke:#181818;stroke-width:1.0;"/><line style="stroke:#181818;stroke-width:1.0;" x1="62.5" x2="394.5" y1="149.8281" y2="149.8281"/><text fill="#000000" font-family="sans-serif" font-size="13" lengthAdjust="spacing" textLength="159" x="69.5" y="144.7622">Planifier une sauvegarde</text><polygon fill="#181818" points="663.5,174.9609,673.5,178.9609,663.5,182.9609,667.5,178.9609" style="stroke:#181818;stroke-width:1.0;"/><line style="stroke:#181818;stroke-width:1.0;" x1="400.5" x2="669.5" y1="178.9609" y2="178.9609"/><text fill="#000000" font-family="sans-serif" font-size="13" lengthAdjust="spacing" textLength="162" x="407.5" y="173.895">Appel de la fonctionnalit&#233;</text><polygon fill="#181818" points="411.5,204.0938,401.5,208.0938,411.5,212.0938,407.5,208.0938" style="stroke:#181818;stroke-width:1.0;"/><line style="stroke:#181818;stroke-width:1.0;" x1="405.5" x2="674.5" y1="208.0938" y2="208.0938"/><text fill="#000000" font-family="sans-serif" font-size="13" lengthAdjust="spacing" textLength="167" x="417.5" y="203.0278">Retourne la vue &#224; afficher</text><polygon fill="#181818" points="73.5,233.2266,63.5,237.2266,73.5,241.2266,69.5,237.2266" style="stroke:#181818;stroke-width:1.0;"/><line style="stroke:#181818;stroke-width:1.0;" x1="67.5" x2="399.5" y1="237.2266" y2="237.2266"/><text fill="#000000" font-family="sans-serif" font-size="13" lengthAdjust="spacing" textLength="204" x="79.5" y="232.1606">Affichage des champs &#224; remplir</text><polygon fill="#181818" points="388.5,262.3594,398.5,266.3594,388.5,270.3594,392.5,266.3594" style="stroke:#181818;stroke-width:1.0;"/><line style="stroke:#181818;stroke-width:1.0;" x1="62.5" x2="394.5" y1="266.3594" y2="266.3594"/><text fill="#000000" font-family="sans-serif" font-size="13" lengthAdjust="spacing" textLength="124" x="69.5" y="261.2935">Rentre les donn&#233;es</text><polygon fill="#181818" points="663.5,291.4922,673.5,295.4922,663.5,299.4922,667.5,295.4922" style="stroke:#181818;stroke-width:1.0;"/><line style="stroke:#181818;stroke-width:1.0;" x1="400.5" x2="669.5" y1="295.4922" y2="295.4922"/><text fill="#000000" font-family="sans-serif" font-size="13" lengthAdjust="spacing" textLength="116" x="407.5" y="290.4263">Envoi les donn&#233;es</text><polygon fill="#181818" points="899.5,320.625,909.5,324.625,899.5,328.625,903.5,324.625" style="stroke:#181818;stroke-width:1.0;"/><line style="stroke:#181818;stroke-width:1.0;" x1="675.5" x2="905.5" y1="324.625" y2="324.625"/><text fill="#000000" font-family="sans-serif" font-size="13" lengthAdjust="spacing" textLength="170" x="682.5" y="319.5591">R&#233;ception des param&#232;tres</text><line style="stroke:#181818;stroke-width:1.0;" x1="911.5" x2="953.5" y1="353.7578" y2="353.7578"/><line style="stroke:#181818;stroke-width:1.0;" x1="953.5" x2="953.5" y1="353.7578" y2="366.7578"/><line style="stroke:#181818;stroke-width:1.0;" x1="912.5" x2="953.5" y1="366.7578" y2="366.7578"/><polygon fill="#181818" points="922.5,362.7578,912.5,366.7578,922.5,370.7578,918.5,366.7578" style="stroke:#181818;stroke-width:1.0;"/><text fill="#000000" font-family="sans-serif" font-size="13" lengthAdjust="spacing" textLength="205" x="918.5" y="348.6919">Enregistrement des param&#232;tres</text><polygon fill="#181818" points="686.5,391.8906,676.5,395.8906,686.5,399.8906,682.5,395.8906" style="stroke:#181818;stroke-width:1.0;"/><line style="stroke:#181818;stroke-width:1.0;" x1="680.5" x2="910.5" y1="395.8906" y2="395.8906"/><text fill="#000000" font-family="sans-serif" font-size="13" lengthAdjust="spacing" textLength="212" x="692.5" y="390.8247">Envoie d'un message de r&#233;ussite</text><polygon fill="#181818" points="411.5,421.0234,401.5,425.0234,411.5,429.0234,407.5,425.0234" style="stroke:#181818;stroke-width:1.0;"/><line style="stroke:#181818;stroke-width:1.0;" x1="405.5" x2="674.5" y1="425.0234" y2="425.0234"/><text fill="#000000" font-family="sans-serif" font-size="13" lengthAdjust="spacing" textLength="212" x="417.5" y="419.9575">Envoie d'un message de r&#233;ussite</text><polygon fill="#181818" points="73.5,450.1563,63.5,454.1563,73.5,458.1563,69.5,454.1563" style="stroke:#181818;stroke-width:1.0;"/><line style="stroke:#181818;stroke-width:1.0;" x1="67.5" x2="399.5" y1="454.1563" y2="454.1563"/><text fill="#000000" font-family="sans-serif" font-size="13" lengthAdjust="spacing" textLength="219" x="79.5" y="449.0903">Affichage du message de r&#233;ussite</text><path d="M30,476.1563 L194,476.1563 L194,483.2891 L184,493.2891 L30,493.2891 L30,476.1563 " fill="#EEEEEE" style="stroke:#000000;stroke-width:1.5;"/><rect fill="none" height="133.6641" style="stroke:#000000;stroke-width:1.5;" width="701" x="30" y="476.1563"/><text fill="#000000" font-family="sans-serif" font-size="13" font-weight="bold" lengthAdjust="spacing" textLength="119" x="45" y="489.2231">Acc&#232;der au logs</text><polygon fill="#181818" points="388.5,510.4219,398.5,514.4219,388.5,518.4219,392.5,514.4219" style="stroke:#181818;stroke-width:1.0;"/><line style="stroke:#181818;stroke-width:1.0;" x1="62.5" x2="394.5" y1="514.4219" y2="514.4219"/><text fill="#000000" font-family="sans-serif" font-size="13" lengthAdjust="spacing" textLength="102" x="69.5" y="509.356">Acc&#233;der au logs</text><polygon fill="#181818" points="663.5,539.5547,673.5,543.5547,663.5,547.5547,667.5,543.5547" style="stroke:#181818;stroke-width:1.0;"/><line style="stroke:#181818;stroke-width:1.0;" x1="400.5" x2="669.5" y1="543.5547" y2="543.5547"/><text fill="#000000" font-family="sans-serif" font-size="13" lengthAdjust="spacing" textLength="162" x="407.5" y="538.4888">Appel de la fonctionnalit&#233;</text><polygon fill="#181818" points="411.5,568.6875,401.5,572.6875,411.5,576.6875,407.5,572.6875" style="stroke:#181818;stroke-width:1.0;"/><line style="stroke:#181818;stroke-width:1.0;" x1="405.5" x2="674.5" y1="572.6875" y2="572.6875"/><text fill="#000000" font-family="sans-serif" font-size="13" lengthAdjust="spacing" textLength="158" x="417.5" y="567.6216">Ouverture du fichier logs</text><polygon fill="#181818" points="73.5,597.8203,63.5,601.8203,73.5,605.8203,69.5,601.8203" style="stroke:#181818;stroke-width:1.0;"/><line style="stroke:#181818;stroke-width:1.0;" x1="67.5" x2="399.5" y1="601.8203" y2="601.8203"/><text fill="#000000" font-family="sans-serif" font-size="13" lengthAdjust="spacing" textLength="118" x="79.5" y="596.7544">Affichage des logs</text><path d="M30,623.8203 L219,623.8203 L219,630.9531 L209,640.9531 L30,640.9531 L30,623.8203 " fill="#EEEEEE" style="stroke:#000000;stroke-width:1.5;"/><rect fill="none" height="133.6641" style="stroke:#000000;stroke-width:1.5;" width="701" x="30" y="623.8203"/><text fill="#000000" font-family="sans-serif" font-size="13" font-weight="bold" lengthAdjust="spacing" textLength="144" x="45" y="636.8872">&#201;tat en temps r&#233;el</text><polygon fill="#181818" points="388.5,658.0859,398.5,662.0859,388.5,666.0859,392.5,662.0859" style="stroke:#181818;stroke-width:1.0;"/><line style="stroke:#181818;stroke-width:1.0;" x1="62.5" x2="394.5" y1="662.0859" y2="662.0859"/><text fill="#000000" font-family="sans-serif" font-size="13" lengthAdjust="spacing" textLength="145" x="69.5" y="657.02">Acc&#233;der au temps r&#233;el</text><polygon fill="#181818" points="663.5,687.2188,673.5,691.2188,663.5,695.2188,667.5,691.2188" style="stroke:#181818;stroke-width:1.0;"/><line style="stroke:#181818;stroke-width:1.0;" x1="400.5" x2="669.5" y1="691.2188" y2="691.2188"/><text fill="#000000" font-family="sans-serif" font-size="13" lengthAdjust="spacing" textLength="162" x="407.5" y="686.1528">Appel de la fonctionnalit&#233;</text><polygon fill="#181818" points="411.5,716.3516,401.5,720.3516,411.5,724.3516,407.5,720.3516" style="stroke:#181818;stroke-width:1.0;"/><line style="stroke:#181818;stroke-width:1.0;" x1="405.5" x2="674.5" y1="720.3516" y2="720.3516"/><text fill="#000000" font-family="sans-serif" font-size="13" lengthAdjust="spacing" textLength="251" x="417.5" y="715.2856">Ouverture du fichier &#233;tat en temps r&#233;el</text><polygon fill="#181818" points="73.5,745.4844,63.5,749.4844,73.5,753.4844,69.5,749.4844" style="stroke:#181818;stroke-width:1.0;"/><line style="stroke:#181818;stroke-width:1.0;" x1="67.5" x2="399.5" y1="749.4844" y2="749.4844"/><text fill="#000000" font-family="sans-serif" font-size="13" lengthAdjust="spacing" textLength="218" x="79.5" y="744.4185">Affichage des &#233;tats en temps r&#233;el</text><path d="M10,771.4844 L341,771.4844 L341,778.6172 L331,788.6172 L10,788.6172 L10,771.4844 " fill="#EEEEEE" style="stroke:#000000;stroke-width:1.5;"/><rect fill="none" height="941.8516" style="stroke:#000000;stroke-width:1.5;" width="1246.5" x="10" y="771.4844"/><text fill="#000000" font-family="sans-serif" font-size="13" font-weight="bold" lengthAdjust="spacing" textLength="286" x="25" y="784.5513">Ex&#233;cuter une ou plusieurs sauvegarde</text><polygon fill="#181818" points="388.5,805.75,398.5,809.75,388.5,813.75,392.5,809.75" style="stroke:#181818;stroke-width:1.0;"/><line style="stroke:#181818;stroke-width:1.0;" x1="62.5" x2="394.5" y1="809.75" y2="809.75"/><text fill="#000000" font-family="sans-serif" font-size="13" lengthAdjust="spacing" textLength="221" x="69.5" y="804.6841">Ex&#233;cuter un travail de sauvegarde</text><polygon fill="#181818" points="663.5,834.8828,673.5,838.8828,663.5,842.8828,667.5,838.8828" style="stroke:#181818;stroke-width:1.0;"/><line style="stroke:#181818;stroke-width:1.0;" x1="400.5" x2="669.5" y1="838.8828" y2="838.8828"/><text fill="#000000" font-family="sans-serif" font-size="13" lengthAdjust="spacing" textLength="162" x="407.5" y="833.8169">Appel de la fonctionnalit&#233;</text><polygon fill="#181818" points="411.5,864.0156,401.5,868.0156,411.5,872.0156,407.5,868.0156" style="stroke:#181818;stroke-width:1.0;"/><line style="stroke:#181818;stroke-width:1.0;" x1="405.5" x2="674.5" y1="868.0156" y2="868.0156"/><text fill="#000000" font-family="sans-serif" font-size="13" lengthAdjust="spacing" textLength="167" x="417.5" y="862.9497">Retourne la vue &#224; afficher</text><polygon fill="#181818" points="73.5,893.1484,63.5,897.1484,73.5,901.1484,69.5,897.1484" style="stroke:#181818;stroke-width:1.0;"/><line style="stroke:#181818;stroke-width:1.0;" x1="67.5" x2="399.5" y1="897.1484" y2="897.1484"/><text fill="#000000" font-family="sans-serif" font-size="13" lengthAdjust="spacing" textLength="204" x="79.5" y="892.0825">Affichage des champs &#224; remplir</text><polygon fill="#181818" points="388.5,922.2813,398.5,926.2813,388.5,930.2813,392.5,926.2813" style="stroke:#181818;stroke-width:1.0;"/><line style="stroke:#181818;stroke-width:1.0;" x1="62.5" x2="394.5" y1="926.2813" y2="926.2813"/><text fill="#000000" font-family="sans-serif" font-size="13" lengthAdjust="spacing" textLength="124" x="69.5" y="921.2153">Rentre les donn&#233;es</text><polygon fill="#181818" points="663.5,951.4141,673.5,955.4141,663.5,959.4141,667.5,955.4141" style="stroke:#181818;stroke-width:1.0;"/><line style="stroke:#181818;stroke-width:1.0;" x1="400.5" x2="669.5" y1="955.4141" y2="955.4141"/><text fill="#000000" font-family="sans-serif" font-size="13" lengthAdjust="spacing" textLength="124" x="407.5" y="950.3481">Envoie les donn&#233;es</text><polygon fill="#181818" points="899.5,980.5469,909.5,984.5469,899.5,988.5469,903.5,984.5469" style="stroke:#181818;stroke-width:1.0;"/><line style="stroke:#181818;stroke-width:1.0;" x1="675.5" x2="905.5" y1="984.5469" y2="984.5469"/><text fill="#000000" font-family="sans-serif" font-size="13" lengthAdjust="spacing" textLength="137" x="682.5" y="979.481">re&#231;oit les param&#232;tres</text><path d="M20,999.5469 L103,999.5469 L103,1006.6797 L93,1016.6797 L20,1016.6797 L20,999.5469 " fill="#EEEEEE" style="stroke:#000000;stroke-width:1.5;"/><rect fill="none" height="706.7891" style="stroke:#000000;stroke-width:1.5;" width="1226.5" x="20" y="999.5469"/><text fill="#000000" font-family="sans-serif" font-size="13" font-weight="bold" lengthAdjust="spacing" textLength="33" x="35" y="1012.6138">loop</text><text fill="#000000" font-family="sans-serif" font-size="11" font-weight="bold" lengthAdjust="spacing" textLength="150" x="118" y="1011.7573">[A chaque sauvegarde]</text><path d="M848,1023.6797 L909,1023.6797 L909,1030.8125 L899,1040.8125 L848,1040.8125 L848,1023.6797 " fill="#EEEEEE" style="stroke:#000000;stroke-width:1.5;"/><rect fill="none" height="498.8594" style="stroke:#000000;stroke-width:1.5;" width="388.5" x="848" y="1023.6797"/><text fill="#000000" font-family="sans-serif" font-size="13" font-weight="bold" lengthAdjust="spacing" textLength="11" x="863" y="1036.7466">if</text><text fill="#000000" font-family="sans-serif" font-size="11" font-weight="bold" lengthAdjust="spacing" textLength="213" x="924" y="1035.8901">[Logiciel m&#233;tier n'est pas lanc&#233;]</text><path d="M858,1047.8125 L919,1047.8125 L919,1054.9453 L909,1064.9453 L858,1064.9453 L858,1047.8125 " fill="#EEEEEE" style="stroke:#000000;stroke-width:1.5;"/><rect fill="none" height="247.9297" style="stroke:#000000;stroke-width:1.5;" width="368.5" x="858" y="1047.8125"/><text fill="#000000" font-family="sans-serif" font-size="13" font-weight="bold" lengthAdjust="spacing" textLength="11" x="873" y="1060.8794">if</text><text fill="#000000" font-family="sans-serif" font-size="11" font-weight="bold" lengthAdjust="spacing" textLength="187" x="934" y="1060.0229">[Il faut chiffrer les fichiers]</text><line style="stroke:#181818;stroke-width:1.0;" x1="911.5" x2="953.5" y1="1086.0781" y2="1086.0781"/><line style="stroke:#181818;stroke-width:1.0;" x1="953.5" x2="953.5" y1="1086.0781" y2="1099.0781"/><line style="stroke:#181818;stroke-width:1.0;" x1="912.5" x2="953.5" y1="1099.0781" y2="1099.0781"/><polygon fill="#181818" points="922.5,1095.0781,912.5,1099.0781,922.5,1103.0781,918.5,1099.0781" style="stroke:#181818;stroke-width:1.0;"/><text fill="#000000" font-family="sans-serif" font-size="13" lengthAdjust="spacing" textLength="296" x="918.5" y="1081.0122">Chiffrement des fichiers contenant l'extension</text><line style="stroke:#181818;stroke-width:1.0;" x1="911.5" x2="953.5" y1="1128.2109" y2="1128.2109"/><line style="stroke:#181818;stroke-width:1.0;" x1="953.5" x2="953.5" y1="1128.2109" y2="1141.2109"/><line style="stroke:#181818;stroke-width:1.0;" x1="912.5" x2="953.5" y1="1141.2109" y2="1141.2109"/><polygon fill="#181818" points="922.5,1137.2109,912.5,1141.2109,922.5,1145.2109,918.5,1141.2109" style="stroke:#181818;stroke-width:1.0;"/><text fill="#000000" font-family="sans-serif" font-size="13" lengthAdjust="spacing" textLength="166" x="918.5" y="1123.145">Ex&#233;cuter les sauvegardes</text><path d="M868,1156.2109 L951,1156.2109 L951,1163.3438 L941,1173.3438 L868,1173.3438 L868,1156.2109 " fill="#EEEEEE" style="stroke:#000000;stroke-width:1.5;"/><rect fill="none" height="59.2656" style="stroke:#000000;stroke-width:1.5;" width="223.5" x="868" y="1156.2109"/><text fill="#000000" font-family="sans-serif" font-size="13" font-weight="bold" lengthAdjust="spacing" textLength="33" x="883" y="1169.2778">loop</text><text fill="#000000" font-family="sans-serif" font-size="11" font-weight="bold" lengthAdjust="spacing" textLength="89" x="966" y="1168.4214">[update logs]</text><line style="stroke:#181818;stroke-width:1.0;" x1="911.5" x2="953.5" y1="1194.4766" y2="1194.4766"/><line style="stroke:#181818;stroke-width:1.0;" x1="953.5" x2="953.5" y1="1194.4766" y2="1207.4766"/><line style="stroke:#181818;stroke-width:1.0;" x1="912.5" x2="953.5" y1="1207.4766" y2="1207.4766"/><polygon fill="#181818" points="922.5,1203.4766,912.5,1207.4766,922.5,1211.4766,918.5,1207.4766" style="stroke:#181818;stroke-width:1.0;"/><text fill="#000000" font-family="sans-serif" font-size="13" lengthAdjust="spacing" textLength="161" x="918.5" y="1189.4106">Mise &#224; jour du fichier logs</text><path d="M868,1229.4766 L951,1229.4766 L951,1236.6094 L941,1246.6094 L868,1246.6094 L868,1229.4766 " fill="#EEEEEE" style="stroke:#000000;stroke-width:1.5;"/><rect fill="none" height="59.2656" style="stroke:#000000;stroke-width:1.5;" width="323.5" x="868" y="1229.4766"/><text fill="#000000" font-family="sans-serif" font-size="13" font-weight="bold" lengthAdjust="spacing" textLength="33" x="883" y="1242.5435">loop</text><text fill="#000000" font-family="sans-serif" font-size="11" font-weight="bold" lengthAdjust="spacing" textLength="89" x="966" y="1241.687">[update logs]</text><line style="stroke:#181818;stroke-width:1.0;" x1="911.5" x2="953.5" y1="1267.7422" y2="1267.7422"/><line style="stroke:#181818;stroke-width:1.0;" x1="953.5" x2="953.5" y1="1267.7422" y2="1280.7422"/><line style="stroke:#181818;stroke-width:1.0;" x1="912.5" x2="953.5" y1="1280.7422" y2="1280.7422"/><polygon fill="#181818" points="922.5,1276.7422,912.5,1280.7422,922.5,1284.7422,918.5,1280.7422" style="stroke:#181818;stroke-width:1.0;"/><text fill="#000000" font-family="sans-serif" font-size="13" lengthAdjust="spacing" textLength="261" x="918.5" y="1262.6763">Mise &#224; jour du fichier Etats en temps r&#233;el</text><path d="M858,1309.7422 L933,1309.7422 L933,1316.875 L923,1326.875 L858,1326.875 L858,1309.7422 " fill="#EEEEEE" style="stroke:#000000;stroke-width:1.5;"/><rect fill="none" height="205.7969" style="stroke:#000000;stroke-width:1.5;" width="343.5" x="858" y="1309.7422"/><text fill="#000000" font-family="sans-serif" font-size="13" font-weight="bold" lengthAdjust="spacing" textLength="30" x="873" y="1322.8091">else</text><line style="stroke:#181818;stroke-width:1.0;" x1="911.5" x2="953.5" y1="1348.0078" y2="1348.0078"/><line style="stroke:#181818;stroke-width:1.0;" x1="953.5" x2="953.5" y1="1348.0078" y2="1361.0078"/><line style="stroke:#181818;stroke-width:1.0;" x1="912.5" x2="953.5" y1="1361.0078" y2="1361.0078"/><polygon fill="#181818" points="922.5,1357.0078,912.5,1361.0078,922.5,1365.0078,918.5,1361.0078" style="stroke:#181818;stroke-width:1.0;"/><text fill="#000000" font-family="sans-serif" font-size="13" lengthAdjust="spacing" textLength="166" x="918.5" y="1342.9419">Ex&#233;cuter les sauvegardes</text><path d="M868,1376.0078 L951,1376.0078 L951,1383.1406 L941,1393.1406 L868,1393.1406 L868,1376.0078 " fill="#EEEEEE" style="stroke:#000000;stroke-width:1.5;"/><rect fill="none" height="59.2656" style="stroke:#000000;stroke-width:1.5;" width="223.5" x="868" y="1376.0078"/><text fill="#000000" font-family="sans-serif" font-size="13" font-weight="bold" lengthAdjust="spacing" textLength="33" x="883" y="1389.0747">loop</text><text fill="#000000" font-family="sans-serif" font-size="11" font-weight="bold" lengthAdjust="spacing" textLength="89" x="966" y="1388.2183">[update logs]</text><line style="stroke:#181818;stroke-width:1.0;" x1="911.5" x2="953.5" y1="1414.2734" y2="1414.2734"/><line style="stroke:#181818;stroke-width:1.0;" x1="953.5" x2="953.5" y1="1414.2734" y2="1427.2734"/><line style="stroke:#181818;stroke-width:1.0;" x1="912.5" x2="953.5" y1="1427.2734" y2="1427.2734"/><polygon fill="#181818" points="922.5,1423.2734,912.5,1427.2734,922.5,1431.2734,918.5,1427.2734" style="stroke:#181818;stroke-width:1.0;"/><text fill="#000000" font-family="sans-serif" font-size="13" lengthAdjust="spacing" textLength="161" x="918.5" y="1409.2075">Mise &#224; jour du fichier logs</text><path d="M868,1449.2734 L951,1449.2734 L951,1456.4063 L941,1466.4063 L868,1466.4063 L868,1449.2734 " fill="#EEEEEE" style="stroke:#000000;stroke-width:1.5;"/><rect fill="none" height="59.2656" style="stroke:#000000;stroke-width:1.5;" width="323.5" x="868" y="1449.2734"/><text fill="#000000" font-family="sans-serif" font-size="13" font-weight="bold" lengthAdjust="spacing" textLength="33" x="883" y="1462.3403">loop</text><text fill="#000000" font-family="sans-serif" font-size="11" font-weight="bold" lengthAdjust="spacing" textLength="89" x="966" y="1461.4839">[update logs]</text><line style="stroke:#181818;stroke-width:1.0;" x1="911.5" x2="953.5" y1="1487.5391" y2="1487.5391"/><line style="stroke:#181818;stroke-width:1.0;" x1="953.5" x2="953.5" y1="1487.5391" y2="1500.5391"/><line style="stroke:#181818;stroke-width:1.0;" x1="912.5" x2="953.5" y1="1500.5391" y2="1500.5391"/><polygon fill="#181818" points="922.5,1496.5391,912.5,1500.5391,922.5,1504.5391,918.5,1500.5391" style="stroke:#181818;stroke-width:1.0;"/><text fill="#000000" font-family="sans-serif" font-size="13" lengthAdjust="spacing" textLength="261" x="918.5" y="1482.4731">Mise &#224; jour du fichier Etats en temps r&#233;el</text><path d="M30,1536.5391 L105,1536.5391 L105,1543.6719 L95,1553.6719 L30,1553.6719 L30,1536.5391 " fill="#EEEEEE" style="stroke:#000000;stroke-width:1.5;"/><rect fill="none" height="104.5313" style="stroke:#000000;stroke-width:1.5;" width="925" x="30" y="1536.5391"/><text fill="#000000" font-family="sans-serif" font-size="13" font-weight="bold" lengthAdjust="spacing" textLength="30" x="45" y="1549.606">else</text><polygon fill="#181818" points="686.5,1570.8047,676.5,1574.8047,686.5,1578.8047,682.5,1574.8047" style="stroke:#181818;stroke-width:1.0;"/><line style="stroke:#181818;stroke-width:1.0;" x1="680.5" x2="910.5" y1="1574.8047" y2="1574.8047"/><text fill="#000000" font-family="sans-serif" font-size="13" lengthAdjust="spacing" textLength="191" x="692.5" y="1569.7388">Envoie d'un message d'erreur</text><polygon fill="#181818" points="411.5,1599.9375,401.5,1603.9375,411.5,1607.9375,407.5,1603.9375" style="stroke:#181818;stroke-width:1.0;"/><line style="stroke:#181818;stroke-width:1.0;" x1="405.5" x2="674.5" y1="1603.9375" y2="1603.9375"/><text fill="#000000" font-family="sans-serif" font-size="13" lengthAdjust="spacing" textLength="191" x="417.5" y="1598.8716">Envoie d'un message d'erreur</text><polygon fill="#181818" points="73.5,1629.0703,63.5,1633.0703,73.5,1637.0703,69.5,1633.0703" style="stroke:#181818;stroke-width:1.0;"/><line style="stroke:#181818;stroke-width:1.0;" x1="67.5" x2="399.5" y1="1633.0703" y2="1633.0703"/><text fill="#000000" font-family="sans-serif" font-size="13" lengthAdjust="spacing" textLength="198" x="79.5" y="1628.0044">Affichage du message d'erreur</text><polygon fill="#181818" points="388.5,1665.2031,398.5,1669.2031,388.5,1673.2031,392.5,1669.2031" style="stroke:#181818;stroke-width:1.0;"/><line style="stroke:#181818;stroke-width:1.0;" x1="62.5" x2="394.5" y1="1669.2031" y2="1669.2031"/><text fill="#000000" font-family="sans-serif" font-size="13" lengthAdjust="spacing" textLength="8" x="69.5" y="1664.1372">a</text><polygon fill="#181818" points="663.5,1694.3359,673.5,1698.3359,663.5,1702.3359,667.5,1698.3359" style="stroke:#181818;stroke-width:1.0;"/><line style="stroke:#181818;stroke-width:1.0;" x1="400.5" x2="669.5" y1="1698.3359" y2="1698.3359"/><text fill="#000000" font-family="sans-serif" font-size="13" lengthAdjust="spacing" textLength="8" x="407.5" y="1693.27">a</text><path d="M30,1727.3359 L392,1727.3359 L392,1734.4688 L382,1744.4688 L30,1744.4688 L30,1727.3359 " fill="#EEEEEE" style="stroke:#000000;stroke-width:1.5;"/><rect fill="none" height="162.7969" style="stroke:#000000;stroke-width:1.5;" width="925" x="30" y="1727.3359"/><text fill="#000000" font-family="sans-serif" font-size="13" font-weight="bold" lengthAdjust="spacing" textLength="317" x="45" y="1740.4028">Afficher la plannification des sauvegardes</text><polygon fill="#181818" points="388.5,1761.6016,398.5,1765.6016,388.5,1769.6016,392.5,1765.6016" style="stroke:#181818;stroke-width:1.0;"/><line style="stroke:#181818;stroke-width:1.0;" x1="62.5" x2="394.5" y1="1765.6016" y2="1765.6016"/><text fill="#000000" font-family="sans-serif" font-size="13" lengthAdjust="spacing" textLength="263" x="69.5" y="1760.5356">Acc&#233;der la Plannification de sauvegardes</text><polygon fill="#181818" points="663.5,1790.7344,673.5,1794.7344,663.5,1798.7344,667.5,1794.7344" style="stroke:#181818;stroke-width:1.0;"/><line style="stroke:#181818;stroke-width:1.0;" x1="400.5" x2="669.5" y1="1794.7344" y2="1794.7344"/><text fill="#000000" font-family="sans-serif" font-size="13" lengthAdjust="spacing" textLength="162" x="407.5" y="1789.6685">Appel de la fonctionnalit&#233;</text><polygon fill="#181818" points="899.5,1819.8672,909.5,1823.8672,899.5,1827.8672,903.5,1823.8672" style="stroke:#181818;stroke-width:1.0;"/><line style="stroke:#181818;stroke-width:1.0;" x1="675.5" x2="905.5" y1="1823.8672" y2="1823.8672"/><text fill="#000000" font-family="sans-serif" font-size="13" lengthAdjust="spacing" textLength="142" x="682.5" y="1818.8013">R&#233;cup&#232;re les donn&#233;es</text><polygon fill="#181818" points="686.5,1849,676.5,1853,686.5,1857,682.5,1853" style="stroke:#181818;stroke-width:1.0;"/><line style="stroke:#181818;stroke-width:1.0;" x1="680.5" x2="910.5" y1="1853" y2="1853"/><text fill="#000000" font-family="sans-serif" font-size="13" lengthAdjust="spacing" textLength="140" x="692.5" y="1847.9341">Transfert les donn&#233;es</text><polygon fill="#181818" points="411.5,1878.1328,401.5,1882.1328,411.5,1886.1328,407.5,1882.1328" style="stroke:#181818;stroke-width:1.0;"/><line style="stroke:#181818;stroke-width:1.0;" x1="405.5" x2="674.5" y1="1882.1328" y2="1882.1328"/><text fill="#000000" font-family="sans-serif" font-size="13" lengthAdjust="spacing" textLength="106" x="417.5" y="1877.0669">Retour de la vue</text><!--SRC=[vLPBRjim4Dth5BFpgXV8ee1HU56WGOEaxYR8OY2DL1OKgVAZfaVeBRghVGvTh4DQiYb5SWmaNHHT69QjDyFtED-j9GDlti9dGT_X2ZQFtJxtJcW51S46xOyxR2cBRncr3UWhM9UboBzWHT18L89_O3Inw5kgq1HaeVi5SiMUfB3eo9iigups3TmSBDYFLvHOGBOTKra27ic4xsjTa0oCceQ_sOj4ABNA0ns5KhXkdvrm9-UtvBGtAk9RJu4jHb5ytBBQe8kVwYRACrGtKfWfxrjIph1ZnXPCejlpmopdZMgr6E76LE_8j2Adu9A3GaqV5GiD6gox7PzYim4qmc-KeKfO1jHCvfpD4puiSkKLr6JjGJ6ORk-j5OvcB_8Ye_dBzFC6f8eXLzPvtkqAjaCFKbTsUjNX_Jvv3w-I6nyvqupp9b8CR4CEnkFF9aP49EIxdmuTa0978M5O8Cbp0bBONvFHxMT8dPKLBUpK9D7Pjuo-JhNddk2ju8gtQT5kP_jCD09di4KHjQNzuD-hy-Kofulgt53tMmiNiMd1zZSjjMxWVXseVVFfNJtq0572_GTTYLomvveZ5qAkLcGTk-CCHSNfbeBVIoZHE_OeojA4DEUJ-ron3_FDvTq1U-mi0nnohHmfvB_bYXxvqN9m5XhKCVpXm6HiZ9Jwfk3H4GjhWSkri36cNpd8qsg5cAIlus-pL0Ed8qXQ-W_4yWSM53yxIrPaJDW4BfuZgS6pCsG0nzOqgLMSgqpCZgg6UJEq1kuMORD9LfjY4hgbHiwMDrFBqLxqihOstWbyq-sUh1eB4VbaKDcI9yBCPd9qFyZf-sRFA3JEU5T_0000]--></g></svg>