<?xml version="1.0" encoding="us-ascii" standalone="no"?><svg xmlns="http://www.w3.org/2000/svg" xmlns:xlink="http://www.w3.org/1999/xlink" contentStyleType="text/css" height="1002px" preserveAspectRatio="none" style="width:953px;height:1002px;background:#FFFFFF;" version="1.1" viewBox="0 0 953 1002" width="953px" zoomAndPan="magnify"><defs/><g><ellipse cx="406.5" cy="16" fill="#222222" rx="10" ry="10" style="stroke:#222222;stroke-width:1.0;"/><rect fill="#F1F1F1" height="33.9688" rx="12.5" ry="12.5" style="stroke:#181818;stroke-width:0.5;" width="160" x="326.5" y="67"/><text fill="#000000" font-family="sans-serif" font-size="12" lengthAdjust="spacing" textLength="140" x="336.5" y="88.1387">Ex&#233;cution de EasySave</text><rect fill="#F1F1F1" height="33.9688" rx="12.5" ry="12.5" style="stroke:#181818;stroke-width:0.5;" width="158" x="327.5" y="142"/><text fill="#000000" font-family="sans-serif" font-size="12" lengthAdjust="spacing" textLength="138" x="337.5" y="163.1387">Affichage planifications</text><rect fill="#F1F1F1" height="33.9688" rx="12.5" ry="12.5" style="stroke:#181818;stroke-width:0.5;" width="107" x="353" y="217"/><text fill="#000000" font-family="sans-serif" font-size="12" lengthAdjust="spacing" textLength="87" x="363" y="238.1387">Menu principal</text><g id="elem_#9"><polygon fill="#F1F1F1" points="406.5,292,418.5,304,406.5,316,394.5,304,406.5,292" style="stroke:#181818;stroke-width:0.5;"/></g><rect fill="#F1F1F1" height="33.9688" rx="12.5" ry="12.5" style="stroke:#181818;stroke-width:0.5;" width="61" x="7" y="357"/><text fill="#000000" font-family="sans-serif" font-size="12" lengthAdjust="spacing" textLength="41" x="17" y="378.1387">Quitter</text><ellipse cx="37.5" cy="449" fill="none" rx="11" ry="11" style="stroke:#222222;stroke-width:1.0;"/><ellipse cx="37.5" cy="449" fill="#222222" rx="6" ry="6" style="stroke:#222222;stroke-width:1.0;"/><rect fill="#F1F1F1" height="33.9688" rx="12.5" ry="12.5" style="stroke:#181818;stroke-width:0.5;" width="142" x="88.5" y="357"/><text fill="#000000" font-family="sans-serif" font-size="12" lengthAdjust="spacing" textLength="122" x="98.5" y="378.1387">Planifier sauvegarde</text><rect fill="#F1F1F1" height="33.9688" rx="12.5" ry="12.5" style="stroke:#181818;stroke-width:0.5;" width="123" x="77" y="432"/><text fill="#000000" font-family="sans-serif" font-size="12" lengthAdjust="spacing" textLength="103" x="87" y="453.1387">Nom sauvegarde</text><rect fill="#F1F1F1" height="33.9688" rx="12.5" ry="12.5" style="stroke:#181818;stroke-width:0.5;" width="130" x="73.5" y="507"/><text fill="#000000" font-family="sans-serif" font-size="12" lengthAdjust="spacing" textLength="110" x="83.5" y="528.1387">R&#233;pertoire source</text><rect fill="#F1F1F1" height="33.9688" rx="12.5" ry="12.5" style="stroke:#181818;stroke-width:0.5;" width="154" x="61.5" y="582"/><text fill="#000000" font-family="sans-serif" font-size="12" lengthAdjust="spacing" textLength="134" x="71.5" y="603.1387">R&#233;pertoire destination</text><g id="elem_#24"><polygon fill="#F1F1F1" points="138.5,657,150.5,669,138.5,681,126.5,669,138.5,657" style="stroke:#181818;stroke-width:0.5;"/></g><rect fill="#F1F1F1" height="33.9688" rx="12.5" ry="12.5" style="stroke:#181818;stroke-width:0.5;" width="132" x="72.5" y="735"/><text fill="#000000" font-family="sans-serif" font-size="12" lengthAdjust="spacing" textLength="112" x="82.5" y="756.1387">Option chiffrement</text><g id="elem_#30"><polygon fill="#F1F1F1" points="138.5,810,150.5,822,138.5,834,126.5,822,138.5,810" style="stroke:#181818;stroke-width:0.5;"/></g><rect fill="#F1F1F1" height="33.9688" rx="12.5" ry="12.5" style="stroke:#181818;stroke-width:0.5;" width="126" x="75.5" y="888"/><text fill="#000000" font-family="sans-serif" font-size="12" lengthAdjust="spacing" textLength="106" x="85.5" y="909.1387">Type sauvegarde</text><rect fill="#F1F1F1" height="33.9688" rx="12.5" ry="12.5" style="stroke:#181818;stroke-width:0.5;" width="165" x="56" y="963"/><text fill="#000000" font-family="sans-serif" font-size="12" lengthAdjust="spacing" textLength="145" x="66" y="984.1387">Planification sauvegarde</text><rect fill="#F1F1F1" height="33.9688" rx="12.5" ry="12.5" style="stroke:#181818;stroke-width:0.5;" width="149" x="251" y="357"/><text fill="#000000" font-family="sans-serif" font-size="12" lengthAdjust="spacing" textLength="129" x="261" y="378.1387">Ex&#233;cuter sauvegarde</text><rect fill="#F1F1F1" height="33.9688" rx="12.5" ry="12.5" style="stroke:#181818;stroke-width:0.5;" width="172" x="220.5" y="432"/><text fill="#000000" font-family="sans-serif" font-size="12" lengthAdjust="spacing" textLength="152" x="230.5" y="453.1387">S&#233;lectionner sauvegarde</text><rect fill="#F1F1F1" height="33.9688" rx="12.5" ry="12.5" style="stroke:#181818;stroke-width:0.5;" width="154" x="229.5" y="507"/><text fill="#000000" font-family="sans-serif" font-size="12" lengthAdjust="spacing" textLength="134" x="239.5" y="528.1387">Ex&#233;cution sauvegarde</text><rect fill="#F1F1F1" height="33.9688" rx="12.5" ry="12.5" style="stroke:#181818;stroke-width:0.5;" width="137" x="420" y="357"/><text fill="#000000" font-family="sans-serif" font-size="12" lengthAdjust="spacing" textLength="117" x="430" y="378.1387">Afficher fichier logs</text><rect fill="#F1F1F1" height="33.9688" rx="12.5" ry="12.5" style="stroke:#181818;stroke-width:0.5;" width="152" x="412.5" y="432"/><text fill="#000000" font-family="sans-serif" font-size="12" lengthAdjust="spacing" textLength="132" x="422.5" y="453.1387">Ouverture fichier logs</text><rect fill="#F1F1F1" height="33.9688" rx="12.5" ry="12.5" style="stroke:#181818;stroke-width:0.5;" width="141" x="578" y="357"/><text fill="#000000" font-family="sans-serif" font-size="12" lengthAdjust="spacing" textLength="121" x="588" y="378.1387">Afficher fichier &#233;tats</text><rect fill="#F1F1F1" height="33.9688" rx="12.5" ry="12.5" style="stroke:#181818;stroke-width:0.5;" width="156" x="584.5" y="432"/><text fill="#000000" font-family="sans-serif" font-size="12" lengthAdjust="spacing" textLength="136" x="594.5" y="453.1387">Ouverture fichier &#233;tats</text><rect fill="#F1F1F1" height="33.9688" rx="12.5" ry="12.5" style="stroke:#181818;stroke-width:0.5;" width="189" x="740" y="357"/><text fill="#000000" font-family="sans-serif" font-size="12" lengthAdjust="spacing" textLength="169" x="750" y="378.1387">Afficher fichier configuration</text><rect fill="#F1F1F1" height="33.9688" rx="12.5" ry="12.5" style="stroke:#181818;stroke-width:0.5;" width="154" x="760.5" y="432"/><text fill="#000000" font-family="sans-serif" font-size="12" lengthAdjust="spacing" textLength="134" x="770.5" y="453.1387">Choisir extension logs</text><rect fill="#F1F1F1" height="33.9688" rx="12.5" ry="12.5" style="stroke:#181818;stroke-width:0.5;" width="151" x="762" y="507"/><text fill="#000000" font-family="sans-serif" font-size="12" lengthAdjust="spacing" textLength="131" x="772" y="528.1387">Choisir logiciel m&#233;tier</text><rect fill="#F1F1F1" height="33.9688" rx="12.5" ry="12.5" style="stroke:#181818;stroke-width:0.5;" width="220" x="727.5" y="582"/><text fill="#000000" font-family="sans-serif" font-size="12" lengthAdjust="spacing" textLength="200" x="737.5" y="603.1387">Choisir les extensions &#224; prioriser</text><!--link start to Ex?cution de EasySave--><g id="link_start_Ex&#233;cution de EasySave"><path d="M406.5,26.177 C406.5,36.661 406.5,48.015 406.5,60.791 " fill="none" id="start-to-Ex&#233;cution de EasySave" style="stroke:#181818;stroke-width:1.0;"/><polygon fill="#181818" points="406.5,66.791,410.5,57.791,406.5,61.791,402.5,57.791,406.5,66.791" style="stroke:#181818;stroke-width:1.0;"/></g><!--link Ex?cution de EasySave to Affichage planifications--><g id="link_Ex&#233;cution de EasySave_Affichage planifications"><path d="M406.5,101.201 C406.5,113.298 406.5,123.758 406.5,135.844 " fill="none" id="Ex&#233;cution de EasySave-to-Affichage planifications" style="stroke:#181818;stroke-width:1.0;"/><polygon fill="#181818" points="406.5,141.844,410.5,132.844,406.5,136.844,402.5,132.844,406.5,141.844" style="stroke:#181818;stroke-width:1.0;"/></g><!--link Affichage planifications to Menu principal--><g id="link_Affichage planifications_Menu principal"><path d="M406.5,176.201 C406.5,188.298 406.5,198.758 406.5,210.844 " fill="none" id="Affichage planifications-to-Menu principal" style="stroke:#181818;stroke-width:1.0;"/><polygon fill="#181818" points="406.5,216.844,410.5,207.844,406.5,211.844,402.5,207.844,406.5,216.844" style="stroke:#181818;stroke-width:1.0;"/></g><!--link Menu principal to #9--><g id="link_Menu principal_#9"><path d="M406.5,251.115 C406.5,263.683 406.5,274.808 406.5,285.885 " fill="none" id="Menu principal-to-#9" style="stroke:#181818;stroke-width:1.0;"/><polygon fill="#181818" points="406.5,291.885,410.5,282.885,406.5,286.885,402.5,282.885,406.5,291.885" style="stroke:#181818;stroke-width:1.0;"/><text fill="#000000" font-family="sans-serif" font-size="11" lengthAdjust="spacing" textLength="4" x="401.525" y="281.4605">&#160;</text></g><!--link #9 to Quitter--><g id="link_#9_Quitter"><path d="M396.128,305.827 C355.169,309.265 200.926,323.822 78.5,357 C75.1076,357.919 77.2808,357.0635 73.8262,358.2585 " fill="none" id="#9-to-Quitter" style="stroke:#181818;stroke-width:1.0;"/><polygon fill="#181818" points="68.1559,360.22,77.969,361.058,72.8812,358.5855,75.3538,353.4976,68.1559,360.22" style="stroke:#181818;stroke-width:1.0;"/></g><!--link Quitter to end--><g id="link_Quitter_end"><path d="M37.5,391.201 C37.5,405.483 37.5,419.844 37.5,431.912 " fill="none" id="Quitter-to-end" style="stroke:#181818;stroke-width:1.0;"/><polygon fill="#181818" points="37.5,437.912,41.5,428.912,37.5,432.912,33.5,428.912,37.5,437.912" style="stroke:#181818;stroke-width:1.0;"/></g><!--link #9 to Planifier sauvegarde--><g id="link_#9_Planifier sauvegarde"><path d="M397.709,307.42 C369.349,315.228 284.3748,338.6214 223.4348,355.3984 " fill="none" id="#9-to-Planifier sauvegarde" style="stroke:#181818;stroke-width:1.0;"/><polygon fill="#181818" points="217.65,356.991,227.3889,358.4587,222.4707,355.6639,225.2655,350.7456,217.65,356.991" style="stroke:#181818;stroke-width:1.0;"/></g><!--link Planifier sauvegarde to Nom sauvegarde--><g id="link_Planifier sauvegarde_Nom sauvegarde"><path d="M154.839,391.201 C151.359,403.298 148.2824,413.9917 144.8064,426.0777 " fill="none" id="Planifier sauvegarde-to-Nom sauvegarde" style="stroke:#181818;stroke-width:1.0;"/><polygon fill="#181818" points="143.148,431.844,149.4798,424.3002,144.53,427.0388,141.7914,422.089,143.148,431.844" style="stroke:#181818;stroke-width:1.0;"/></g><!--link Nom sauvegarde to R?pertoire source--><g id="link_Nom sauvegarde_R&#233;pertoire source"><path d="M138.5,466.201 C138.5,478.298 138.5,488.758 138.5,500.844 " fill="none" id="Nom sauvegarde-to-R&#233;pertoire source" style="stroke:#181818;stroke-width:1.0;"/><polygon fill="#181818" points="138.5,506.844,142.5,497.844,138.5,501.844,134.5,497.844,138.5,506.844" style="stroke:#181818;stroke-width:1.0;"/></g><!--link R?pertoire source to R?pertoire destination--><g id="link_R&#233;pertoire source_R&#233;pertoire destination"><path d="M138.5,541.201 C138.5,553.298 138.5,563.758 138.5,575.844 " fill="none" id="R&#233;pertoire source-to-R&#233;pertoire destination" style="stroke:#181818;stroke-width:1.0;"/><polygon fill="#181818" points="138.5,581.844,142.5,572.844,138.5,576.844,134.5,572.844,138.5,581.844" style="stroke:#181818;stroke-width:1.0;"/></g><!--link R?pertoire destination to #24--><g id="link_R&#233;pertoire destination_#24"><path d="M138.5,616.115 C138.5,628.683 138.5,639.808 138.5,650.885 " fill="none" id="R&#233;pertoire destination-to-#24" style="stroke:#181818;stroke-width:1.0;"/><polygon fill="#181818" points="138.5,656.885,142.5,647.885,138.5,651.885,134.5,647.885,138.5,656.885" style="stroke:#181818;stroke-width:1.0;"/><text fill="#000000" font-family="sans-serif" font-size="11" lengthAdjust="spacing" textLength="66" x="56.4125" y="646.4605">chiffrement</text></g><!--link #24 to Option chiffrement--><g id="link_#24_Option chiffrement"><path d="M132.892,675.564 C127.499,681.345 119.707,690.94 116.5,701 C112.813,712.566 114.9788,720.0777 121.4008,729.6857 " fill="none" id="#24-to-Option chiffrement" style="stroke:#181818;stroke-width:1.0;"/><polygon fill="#181818" points="124.735,734.674,123.0593,724.9688,121.9565,730.5171,116.4082,729.4143,124.735,734.674" style="stroke:#181818;stroke-width:1.0;"/><text fill="#000000" font-family="sans-serif" font-size="11" lengthAdjust="spacing" textLength="17" x="117.5" y="712.2104">oui</text></g><!--link #24 to Option chiffrement--><g id="link_#24_Option chiffrement"><path d="M138.5,681.263 C138.5,695.173 138.5,712.937 138.5,728.803 " fill="none" id="#24-to-Option chiffrement-1" style="stroke:#181818;stroke-width:1.0;"/><polygon fill="#181818" points="138.5,734.803,142.5,725.803,138.5,729.803,134.5,725.803,138.5,734.803" style="stroke:#181818;stroke-width:1.0;"/><text fill="#000000" font-family="sans-serif" font-size="11" lengthAdjust="spacing" textLength="21" x="139.5" y="712.2104">non</text></g><!--link Option chiffrement to #30--><g id="link_Option chiffrement_#30"><path d="M138.5,769.115 C138.5,781.683 138.5,792.808 138.5,803.885 " fill="none" id="Option chiffrement-to-#30" style="stroke:#181818;stroke-width:1.0;"/><polygon fill="#181818" points="138.5,809.885,142.5,800.885,138.5,804.885,134.5,800.885,138.5,809.885" style="stroke:#181818;stroke-width:1.0;"/><text fill="#000000" font-family="sans-serif" font-size="11" lengthAdjust="spacing" textLength="26" x="106.1625" y="799.4605">type</text></g><!--link #30 to Type sauvegarde--><g id="link_#30_Type sauvegarde"><path d="M131.02,826.83 C122.302,831.766 108.344,841.255 102.5,854 C99.9065,859.656 100.1189,862.251 102.5,868 C105.6119,875.513 106.8132,878.1151 112.6142,883.6961 " fill="none" id="#30-to-Type sauvegarde" style="stroke:#181818;stroke-width:1.0;"/><polygon fill="#181818" points="116.938,887.856,113.2255,878.7337,113.3348,884.3895,107.679,884.4988,116.938,887.856" style="stroke:#181818;stroke-width:1.0;"/><text fill="#000000" font-family="sans-serif" font-size="11" lengthAdjust="spacing" textLength="46" x="103.5" y="865.2104">complet</text></g><!--link #30 to Type sauvegarde--><g id="link_#30_Type sauvegarde"><path d="M142.579,830.376 C145.718,836.494 149.796,845.532 151.5,854 C153.8,865.431 152.636,872.5738 148.744,882.3208 " fill="none" id="#30-to-Type sauvegarde-1" style="stroke:#181818;stroke-width:1.0;"/><polygon fill="#181818" points="146.519,887.893,153.5713,881.018,148.3732,883.2495,146.1417,878.0514,146.519,887.893" style="stroke:#181818;stroke-width:1.0;"/><text fill="#000000" font-family="sans-serif" font-size="11" lengthAdjust="spacing" textLength="50" x="153.5" y="865.2104">parall&#232;le</text></g><!--link Type sauvegarde to Planification sauvegarde--><g id="link_Type sauvegarde_Planification sauvegarde"><path d="M138.5,922.2011 C138.5,934.2984 138.5,944.7578 138.5,956.8442 " fill="none" id="Type sauvegarde-to-Planification sauvegarde" style="stroke:#181818;stroke-width:1.0;"/><polygon fill="#181818" points="138.5,962.8442,142.5,953.8442,138.5,957.8442,134.5,953.8442,138.5,962.8442" style="stroke:#181818;stroke-width:1.0;"/></g><!--link #9 to Ex?cuter sauvegarde--><g id="link_#9_Ex&#233;cuter sauvegarde"><path d="M400.412,310.111 C388.712,319.933 367.2433,337.9561 349.1713,353.1281 " fill="none" id="#9-to-Ex&#233;cuter sauvegarde" style="stroke:#181818;stroke-width:1.0;"/><polygon fill="#181818" points="344.576,356.986,354.0409,354.2627,348.4054,353.7711,348.897,348.1356,344.576,356.986" style="stroke:#181818;stroke-width:1.0;"/></g><!--link Ex?cuter sauvegarde to S?lectionner sauvegarde--><g id="link_Ex&#233;cuter sauvegarde_S&#233;lectionner sauvegarde"><path d="M321.283,391.201 C318.135,403.298 315.3624,413.9515 312.2164,426.0375 " fill="none" id="Ex&#233;cuter sauvegarde-to-S&#233;lectionner sauvegarde" style="stroke:#181818;stroke-width:1.0;"/><polygon fill="#181818" points="310.705,431.844,316.8432,424.1419,311.9645,427.0052,309.1012,422.1266,310.705,431.844" style="stroke:#181818;stroke-width:1.0;"/></g><!--link S?lectionner sauvegarde to Ex?cution sauvegarde--><g id="link_S&#233;lectionner sauvegarde_Ex&#233;cution sauvegarde"><path d="M306.5,466.201 C306.5,478.298 306.5,488.758 306.5,500.844 " fill="none" id="S&#233;lectionner sauvegarde-to-Ex&#233;cution sauvegarde" style="stroke:#181818;stroke-width:1.0;"/><polygon fill="#181818" points="306.5,506.844,310.5,497.844,306.5,501.844,302.5,497.844,306.5,506.844" style="stroke:#181818;stroke-width:1.0;"/></g><!--link #9 to Afficher fichier logs--><g id="link_#9_Afficher fichier logs"><path d="M412.663,310.111 C424.508,319.933 446.2755,337.9839 464.5705,353.1559 " fill="none" id="#9-to-Afficher fichier logs" style="stroke:#181818;stroke-width:1.0;"/><polygon fill="#181818" points="469.189,356.986,464.8147,348.1619,465.3403,353.7943,459.7079,354.3198,469.189,356.986" style="stroke:#181818;stroke-width:1.0;"/></g><!--link Afficher fichier logs to Ouverture fichier logs--><g id="link_Afficher fichier logs_Ouverture fichier logs"><path d="M488.5,391.201 C488.5,403.298 488.5,413.758 488.5,425.844 " fill="none" id="Afficher fichier logs-to-Ouverture fichier logs" style="stroke:#181818;stroke-width:1.0;"/><polygon fill="#181818" points="488.5,431.844,492.5,422.844,488.5,426.844,484.5,422.844,488.5,431.844" style="stroke:#181818;stroke-width:1.0;"/></g><!--link #9 to Afficher fichier ?tats--><g id="link_#9_Afficher fichier &#233;tats"><path d="M415.113,307.42 C442.898,315.228 526.0437,338.5909 585.7517,355.3679 " fill="none" id="#9-to-Afficher fichier &#233;tats" style="stroke:#181818;stroke-width:1.0;"/><polygon fill="#181818" points="591.528,356.991,583.9456,350.7056,586.7144,355.6385,581.7815,358.4073,591.528,356.991" style="stroke:#181818;stroke-width:1.0;"/></g><!--link Afficher fichier ?tats to Ouverture fichier ?tats--><g id="link_Afficher fichier &#233;tats_Ouverture fichier &#233;tats"><path d="M651.607,391.201 C653.927,403.298 655.9538,413.8654 658.2718,425.9514 " fill="none" id="Afficher fichier &#233;tats-to-Ouverture fichier &#233;tats" style="stroke:#181818;stroke-width:1.0;"/><polygon fill="#181818" points="659.402,431.844,661.6352,422.2517,658.4602,426.9335,653.7784,423.7585,659.402,431.844" style="stroke:#181818;stroke-width:1.0;"/></g><!--link #9 to Afficher fichier configuration--><g id="link_#9_Afficher fichier configuration"><path d="M416.244,306.548 C458.674,313.289 624.1893,339.5866 733.9733,357.0286 " fill="none" id="#9-to-Afficher fichier configuration" style="stroke:#181818;stroke-width:1.0;"/><polygon fill="#181818" points="739.899,357.97,731.6381,352.6074,734.9609,357.1855,730.3828,360.5083,739.899,357.97" style="stroke:#181818;stroke-width:1.0;"/></g><!--link Afficher fichier configuration to Choisir extension logs--><g id="link_Afficher fichier configuration_Choisir extension logs"><path d="M835.166,391.201 C835.663,403.298 836.0925,413.7631 836.5895,425.8491 " fill="none" id="Afficher fichier configuration-to-Choisir extension logs" style="stroke:#181818;stroke-width:1.0;"/><polygon fill="#181818" points="836.836,431.844,840.4628,422.6873,836.6306,426.8482,832.4696,423.0159,836.836,431.844" style="stroke:#181818;stroke-width:1.0;"/></g><!--link Choisir extension logs to Choisir logiciel m?tier--><g id="link_Choisir extension logs_Choisir logiciel m&#233;tier"><path d="M837.5,466.201 C837.5,478.298 837.5,488.758 837.5,500.844 " fill="none" id="Choisir extension logs-to-Choisir logiciel m&#233;tier" style="stroke:#181818;stroke-width:1.0;"/><polygon fill="#181818" points="837.5,506.844,841.5,497.844,837.5,501.844,833.5,497.844,837.5,506.844" style="stroke:#181818;stroke-width:1.0;"/></g><!--link Choisir logiciel m?tier to Choisir les extensions ? prioriser--><g id="link_Choisir logiciel m&#233;tier_Choisir les extensions &#224; prioriser"><path d="M837.5,541.201 C837.5,553.298 837.5,563.758 837.5,575.844 " fill="none" id="Choisir logiciel m&#233;tier-to-Choisir les extensions &#224; prioriser" style="stroke:#181818;stroke-width:1.0;"/><polygon fill="#181818" points="837.5,581.844,841.5,572.844,837.5,576.844,833.5,572.844,837.5,581.844" style="stroke:#181818;stroke-width:1.0;"/></g><!--SRC=[VP9DRiCW48NtFiN8goHIhb2fgh9iapRTHLaWFDWZOK3yHCbjkgpFuOiLx5YcgfkLPRutZmUFrMODs-qJbBjht_7WIIke47RCtOxiWcKnm6SXY3UiHZ2IAOe_B2dT7R-Y2c0iAKw6oR8W0MK9la4rylT0tgCTrQlDka3fS4I7qGyjE1OkM3DRJPk-wVRluaVV6RHUaqLmEbY-12fqdjGGSGp36nB2OelAPxbEEj0PzcOuT2QPuvsKLiiALP4OhFtDOEx9TMia-ZDyHf3bpqmDiqpA_blYWcemJh93VjEBHbDdIvTtx3k9F8sg9PordRFPUcmyZgPFgaVgUgfx7mUi3_6YVyC7qttdcVz_Vi8F7BXMWkfWxwqEefT6aoCBUFMeN3fCbdA2SOaueOGsxaBJAvmnkddUGV-L7hAsv99oQEC7]--></g></svg>