<?xml version="1.0" encoding="us-ascii" standalone="no"?><svg xmlns="http://www.w3.org/2000/svg" xmlns:xlink="http://www.w3.org/1999/xlink" contentStyleType="text/css" height="588px" preserveAspectRatio="none" style="width:1286px;height:588px;background:#FFFFFF;" version="1.1" viewBox="0 0 1286 588" width="1286px" zoomAndPan="magnify"><defs/><g><!--cluster Syst?me de sauvegarde--><g id="cluster_Syst&#232;me de sauvegarde"><rect fill="none" height="575" rx="2.5" ry="2.5" style="stroke:#181818;stroke-width:1.0;" width="1154" x="126" y="7"/><text fill="#000000" font-family="sans-serif" font-size="14" font-weight="bold" lengthAdjust="spacing" textLength="191" x="607.5" y="21.9951">Syst&#232;me de sauvegarde</text></g><g id="elem_UC1"><ellipse cx="265.4996" cy="65.0999" fill="#F1F1F1" rx="90.9996" ry="20.5999" style="stroke:#181818;stroke-width:0.5;"/><text fill="#000000" font-family="sans-serif" font-size="14" lengthAdjust="spacing" textLength="144" x="193.4996" y="67.9466">Planifier sauvegarde</text></g><g id="elem_UC11"><ellipse cx="602.0118" cy="128.9024" fill="#F1F1F1" rx="95.0118" ry="21.4024" style="stroke:#181818;stroke-width:0.5;"/><text fill="#000000" font-family="sans-serif" font-size="14" lengthAdjust="spacing" textLength="153" x="525.5118" y="131.749">Sp&#233;cifier param&#232;tres</text></g><g id="elem_UC12"><ellipse cx="915.3592" cy="277.8718" fill="#F1F1F1" rx="84.8592" ry="19.3718" style="stroke:#181818;stroke-width:0.5;"/><text fill="#000000" font-family="sans-serif" font-size="14" lengthAdjust="spacing" textLength="130" x="850.3592" y="280.7185">R&#233;pertoire source</text></g><g id="elem_UC13"><ellipse cx="915.4278" cy="200.9856" fill="#F1F1F1" rx="100.4278" ry="22.4856" style="stroke:#181818;stroke-width:0.5;"/><text fill="#000000" font-family="sans-serif" font-size="14" lengthAdjust="spacing" textLength="165" x="832.9278" y="203.8322">R&#233;pertoire destination</text></g><g id="elem_UC14"><ellipse cx="915.4961" cy="129.0423" fill="#F1F1F1" rx="36.9961" ry="14.5423" style="stroke:#181818;stroke-width:0.5;"/><text fill="#000000" font-family="sans-serif" font-size="14" lengthAdjust="spacing" textLength="36" x="896.1301" y="132.3527">Type</text></g><g id="elem_UC15"><ellipse cx="1197.0799" cy="161.7511" fill="#F1F1F1" rx="57.0799" ry="14.7511" style="stroke:#181818;stroke-width:0.5;"/><text fill="#000000" font-family="sans-serif" font-size="14" lengthAdjust="spacing" textLength="63" x="1162.5799" y="165.4987">Complet</text></g><g id="elem_UC16"><ellipse cx="1196.8142" cy="95.7628" fill="#F1F1F1" rx="66.8142" ry="15.7628" style="stroke:#181818;stroke-width:0.5;"/><text fill="#000000" font-family="sans-serif" font-size="14" lengthAdjust="spacing" textLength="84" x="1151.8142" y="99.5104">Diff&#233;rentiel</text></g><g id="elem_UC17"><ellipse cx="915.2839" cy="60.8568" fill="#F1F1F1" rx="79.7839" ry="18.3568" style="stroke:#181818;stroke-width:0.5;"/><text fill="#000000" font-family="sans-serif" font-size="14" lengthAdjust="spacing" textLength="118" x="854.5356" y="64.2613">Nom sauvegarde</text></g><g id="elem_UC2"><ellipse cx="265.7229" cy="142.0446" fill="#F1F1F1" rx="93.2229" ry="21.0446" style="stroke:#181818;stroke-width:0.5;"/><text fill="#000000" font-family="sans-serif" font-size="14" lengthAdjust="spacing" textLength="149" x="191.2229" y="144.8913">Ex&#233;cuter sauvegarde</text></g><g id="elem_UC21"><ellipse cx="602.1728" cy="323.8346" fill="#F1F1F1" rx="89.6728" ry="20.3346" style="stroke:#181818;stroke-width:0.5;"/><text fill="#000000" font-family="sans-serif" font-size="14" lengthAdjust="spacing" textLength="141" x="531.6728" y="326.6812">Renseigner entr&#233;es</text></g><g id="elem_UC22"><ellipse cx="915.4961" cy="423.0423" fill="#F1F1F1" rx="36.9961" ry="14.5423" style="stroke:#181818;stroke-width:0.5;"/><text fill="#000000" font-family="sans-serif" font-size="14" lengthAdjust="spacing" textLength="36" x="896.1301" y="426.3527">Type</text></g><g id="elem_UC23"><ellipse cx="1197.0799" cy="457.7511" fill="#F1F1F1" rx="57.0799" ry="14.7511" style="stroke:#181818;stroke-width:0.5;"/><text fill="#000000" font-family="sans-serif" font-size="14" lengthAdjust="spacing" textLength="63" x="1162.5799" y="461.4987">Complet</text></g><g id="elem_UC24"><ellipse cx="1196.8963" cy="391.7793" fill="#F1F1F1" rx="64.3963" ry="15.2793" style="stroke:#181818;stroke-width:0.5;"/><text fill="#000000" font-family="sans-serif" font-size="14" lengthAdjust="spacing" textLength="77" x="1155.3963" y="395.5268">S&#233;quentiel</text></g><g id="elem_UC28"><ellipse cx="915.6728" cy="352.8346" fill="#F1F1F1" rx="89.6728" ry="20.3346" style="stroke:#181818;stroke-width:0.5;"/><text fill="#000000" font-family="sans-serif" font-size="14" lengthAdjust="spacing" textLength="141" x="845.1728" y="355.6812">Option chiffrement</text></g><g id="elem_UC3"><ellipse cx="265.3288" cy="214.7658" fill="#F1F1F1" rx="69.3288" ry="16.2658" style="stroke:#181818;stroke-width:0.5;"/><text fill="#000000" font-family="sans-serif" font-size="14" lengthAdjust="spacing" textLength="91" x="216.8288" y="218.5133">Afficher logs</text></g><g id="elem_UC4"><ellipse cx="265.3973" cy="293.1795" fill="#F1F1F1" rx="118.8973" ry="26.1795" style="stroke:#181818;stroke-width:0.5;"/><text fill="#000000" font-family="sans-serif" font-size="14" lengthAdjust="spacing" textLength="205" x="162.8973" y="296.0261">Afficher &#233;tats en temps r&#233;el</text></g><g id="elem_UC5"><ellipse cx="265.5638" cy="375.8128" fill="#F1F1F1" rx="94.5638" ry="21.3128" style="stroke:#181818;stroke-width:0.5;"/><text fill="#000000" font-family="sans-serif" font-size="14" lengthAdjust="spacing" textLength="152" x="189.5638" y="378.6594">Afficher planification</text></g><g id="elem_UC6"><ellipse cx="265.4563" cy="450.7913" fill="#F1F1F1" rx="76.9563" ry="17.7913" style="stroke:#181818;stroke-width:0.5;"/><text fill="#000000" font-family="sans-serif" font-size="14" lengthAdjust="spacing" textLength="111" x="207.0675" y="454.5101">Quitter console</text></g><g id="elem_UC7"><ellipse cx="265.5909" cy="531.1182" fill="#F1F1F1" rx="123.5909" ry="27.1182" style="stroke:#181818;stroke-width:0.5;"/><text fill="#000000" font-family="sans-serif" font-size="14" lengthAdjust="spacing" textLength="215" x="158.0909" y="533.9649">Ouvrir fichier de configuration</text></g><g id="elem_UC71"><ellipse cx="601.7754" cy="545.0551" fill="#F1F1F1" rx="75.7754" ry="17.5551" style="stroke:#181818;stroke-width:0.5;"/><text fill="#000000" font-family="sans-serif" font-size="14" lengthAdjust="spacing" textLength="108" x="544.7754" y="548.8026">Logiciel m&#233;tier</text></g><g id="elem_UC72"><ellipse cx="601.8288" cy="475.7658" fill="#F1F1F1" rx="69.3288" ry="16.2658" style="stroke:#181818;stroke-width:0.5;"/><text fill="#000000" font-family="sans-serif" font-size="14" lengthAdjust="spacing" textLength="91" x="553.3288" y="479.5133">Type de logs</text></g><g id="elem_UC721"><ellipse cx="915.5514" cy="551.0323" fill="#F1F1F1" rx="35.5514" ry="14.5323" style="stroke:#181818;stroke-width:0.5;"/><text fill="#000000" font-family="sans-serif" font-size="14" lengthAdjust="spacing" textLength="34" x="897.6581" y="554.1955">JSON</text></g><g id="elem_UC722"><ellipse cx="915.6985" cy="487.0236" fill="#F1F1F1" rx="32.6985" ry="14.5236" style="stroke:#181818;stroke-width:0.5;"/><text fill="#000000" font-family="sans-serif" font-size="14" lengthAdjust="spacing" textLength="30" x="900.6709" y="489.881">XML</text></g><g id="elem_UC73"><ellipse cx="602.0673" cy="402.2135" fill="#F1F1F1" rx="99.0673" ry="22.2135" style="stroke:#181818;stroke-width:0.5;"/><text fill="#000000" font-family="sans-serif" font-size="14" lengthAdjust="spacing" textLength="162" x="521.0673" y="405.0601">Extensions prioritaires</text></g><!--entity fc--><g id="elem_fc"><ellipse cx="42.5" cy="263.5" fill="#F1F1F1" rx="8" ry="8" style="stroke:#181818;stroke-width:0.5;"/><path d="M42.5,271.5 L42.5,298.5 M29.5,279.5 L55.5,279.5 M42.5,298.5 L29.5,313.5 M42.5,298.5 L55.5,313.5 " fill="none" style="stroke:#181818;stroke-width:0.5;"/><text fill="#000000" font-family="sans-serif" font-size="14" lengthAdjust="spacing" textLength="73" x="6" y="327.9951">Utilisateur</text></g><!--link fc to UC1--><g id="link_fc_UC1"><path d="M48.1346,254.696 C55.4053,211.564 73.5964,142.375 118,103 C135.399,87.572 152.4519,79.711 174.9409,74.143 " fill="none" id="fc-to-UC1" style="stroke:#181818;stroke-width:1.0;"/><polygon fill="#181818" points="180.765,72.701,171.0675,70.9812,175.9115,73.9027,172.9901,78.7467,180.765,72.701" style="stroke:#181818;stroke-width:1.0;"/></g><!--link UC1 to UC11--><g id="link_UC1_UC11"><path d="M335.403,78.183 C391.918,88.996 465.7749,103.1275 523.1149,114.0985 " fill="none" id="UC1-to-UC11" style="stroke:#181818;stroke-width:1.0;stroke-dasharray:7.0,7.0;"/><polygon fill="#181818" points="529.008,115.226,520.92,109.606,524.0971,114.2864,519.4167,117.4634,529.008,115.226" style="stroke:#181818;stroke-width:1.0;"/><text fill="#000000" font-family="sans-serif" font-size="13" lengthAdjust="spacing" textLength="52" x="420" y="92.0669">includes</text></g><!--link UC11 to UC12--><g id="link_UC11_UC12"><path d="M637.566,149.052 C678.97,172.648 750.795,212.249 815,241 C831.821,248.532 845.0447,253.7742 861.7857,259.8662 " fill="none" id="UC11-to-UC12" style="stroke:#181818;stroke-width:1.0;stroke-dasharray:7.0,7.0;"/><polygon fill="#181818" points="867.424,261.918,860.3344,255.0815,862.7254,260.2082,857.5987,262.5992,867.424,261.918" style="stroke:#181818;stroke-width:1.0;"/><text fill="#000000" font-family="sans-serif" font-size="13" lengthAdjust="spacing" textLength="52" x="732" y="196.0669">includes</text></g><!--link UC11 to UC13--><g id="link_UC11_UC13"><path d="M669.061,144.269 C720.763,156.22 786.6211,171.4418 839.1771,183.5898 " fill="none" id="UC11-to-UC13" style="stroke:#181818;stroke-width:1.0;stroke-dasharray:7.0,7.0;"/><polygon fill="#181818" points="845.023,184.941,837.155,179.0169,840.1514,183.815,835.3534,186.8114,845.023,184.941" style="stroke:#181818;stroke-width:1.0;"/><text fill="#000000" font-family="sans-serif" font-size="13" lengthAdjust="spacing" textLength="52" x="732" y="156.0669">includes</text></g><!--link UC11 to UC14--><g id="link_UC11_UC14"><path d="M697.306,129 C758.368,129 828.435,129 872.435,129 " fill="none" id="UC11-to-UC14" style="stroke:#181818;stroke-width:1.0;stroke-dasharray:7.0,7.0;"/><polygon fill="#181818" points="878.435,129,869.435,125,873.435,129,869.435,133,878.435,129" style="stroke:#181818;stroke-width:1.0;"/><text fill="#000000" font-family="sans-serif" font-size="13" lengthAdjust="spacing" textLength="52" x="732" y="125.0669">includes</text></g><!--link UC14 to UC15--><g id="link_UC14_UC15"><path d="M945.222,137.816 C971.243,145.336 1010.79,155.606 1046,160 C1077.14,163.886 1106.2005,164.6371 1134.5905,164.2581 " fill="none" id="UC14-to-UC15" style="stroke:#181818;stroke-width:1.0;stroke-dasharray:7.0,7.0;"/><polygon fill="#181818" points="1140.59,164.178,1131.5374,160.2985,1135.5904,164.2447,1131.6442,168.2978,1140.59,164.178" style="stroke:#181818;stroke-width:1.0;"/><text fill="#000000" font-family="sans-serif" font-size="13" lengthAdjust="spacing" textLength="52" x="1047" y="156.0669">includes</text></g><!--link UC14 to UC16--><g id="link_UC14_UC16"><path d="M951.053,124.92 C997.352,119.454 1074.2614,110.3735 1130.6614,103.7145 " fill="none" id="UC14-to-UC16" style="stroke:#181818;stroke-width:1.0;stroke-dasharray:7.0,7.0;"/><polygon fill="#181818" points="1136.62,103.011,1127.2131,100.0939,1131.6545,103.5973,1128.1511,108.0387,1136.62,103.011" style="stroke:#181818;stroke-width:1.0;"/><text fill="#000000" font-family="sans-serif" font-size="13" lengthAdjust="spacing" textLength="52" x="1047" y="104.0669">includes</text></g><!--link UC11 to UC17--><g id="link_UC11_UC17"><path d="M670.975,114.161 C726.47,102.047 798.1761,86.3937 850.7451,74.9177 " fill="none" id="UC11-to-UC17" style="stroke:#181818;stroke-width:1.0;stroke-dasharray:7.0,7.0;"/><polygon fill="#181818" points="856.607,73.638,846.961,71.6496,851.722,74.7044,848.6672,79.4655,856.607,73.638" style="stroke:#181818;stroke-width:1.0;"/><text fill="#000000" font-family="sans-serif" font-size="13" lengthAdjust="spacing" textLength="52" x="732" y="87.0669">includes</text></g><!--link fc to UC2--><g id="link_fc_UC2"><path d="M59.9723,254.981 C72.4901,230.407 91.998,199.642 118,181 C137.358,167.121 155.5189,159.6432 178.4339,153.8852 " fill="none" id="fc-to-UC2" style="stroke:#181818;stroke-width:1.0;"/><polygon fill="#181818" points="184.253,152.423,174.5495,150.7369,179.4037,153.6415,176.4991,158.4957,184.253,152.423" style="stroke:#181818;stroke-width:1.0;"/></g><!--link UC2 to UC21--><g id="link_UC2_UC21"><path d="M327.64,157.72 C347.666,163.846 369.714,171.664 389,181 C461.927,216.302 533.919,270.2152 571.944,300.4052 " fill="none" id="UC2-to-UC21" style="stroke:#181818;stroke-width:1.0;stroke-dasharray:7.0,7.0;"/><polygon fill="#181818" points="576.643,304.136,572.0816,295.4071,572.7271,301.027,567.1072,301.6725,576.643,304.136" style="stroke:#181818;stroke-width:1.0;"/><text fill="#000000" font-family="sans-serif" font-size="13" lengthAdjust="spacing" textLength="52" x="420" y="193.0669">includes</text></g><!--link UC21 to UC22--><g id="link_UC21_UC22"><path d="M654.678,340.603 C677.989,348.08 705.873,357.005 731,365 C785.921,382.475 844.4212,400.9324 880.4742,412.2884 " fill="none" id="UC21-to-UC22" style="stroke:#181818;stroke-width:1.0;stroke-dasharray:7.0,7.0;"/><polygon fill="#181818" points="886.197,414.091,878.8145,407.5719,881.428,412.5889,876.411,415.2023,886.197,414.091" style="stroke:#181818;stroke-width:1.0;"/><text fill="#000000" font-family="sans-serif" font-size="13" lengthAdjust="spacing" textLength="52" x="732" y="361.0669">includes</text></g><!--link UC22 to UC23--><g id="link_UC22_UC23"><path d="M951.053,427.327 C999.762,433.426 1082.9865,443.8485 1139.2465,450.8935 " fill="none" id="UC22-to-UC23" style="stroke:#181818;stroke-width:1.0;stroke-dasharray:7.0,7.0;"/><polygon fill="#181818" points="1145.2,451.639,1136.7668,446.5517,1140.2387,451.0177,1135.7727,454.4897,1145.2,451.639" style="stroke:#181818;stroke-width:1.0;"/><text fill="#000000" font-family="sans-serif" font-size="13" lengthAdjust="spacing" textLength="52" x="1047" y="435.0669">includes</text></g><!--link UC22 to UC24--><g id="link_UC22_UC24"><path d="M951.334,419.137 C998.089,413.951 1075.8066,405.3315 1132.1166,399.0855 " fill="none" id="UC22-to-UC24" style="stroke:#181818;stroke-width:1.0;stroke-dasharray:7.0,7.0;"/><polygon fill="#181818" points="1138.08,398.424,1128.6939,395.4406,1133.1105,398.9752,1129.5758,403.3918,1138.08,398.424" style="stroke:#181818;stroke-width:1.0;"/><text fill="#000000" font-family="sans-serif" font-size="13" lengthAdjust="spacing" textLength="52" x="1047" y="398.0669">includes</text></g><!--link UC21 to UC28--><g id="link_UC21_UC28"><path d="M685.25,331.657 C730.674,335.886 780.9448,340.5658 826.3548,344.7938 " fill="none" id="UC21-to-UC28" style="stroke:#181818;stroke-width:1.0;stroke-dasharray:7.0,7.0;"/><polygon fill="#181818" points="832.329,345.35,823.7386,340.5329,827.3505,344.8865,822.9969,348.4984,832.329,345.35" style="stroke:#181818;stroke-width:1.0;"/><text fill="#000000" font-family="sans-serif" font-size="13" lengthAdjust="spacing" textLength="52" x="732" y="332.0669">includes</text></g><!--link fc to UC3--><g id="link_fc_UC3"><path d="M79.1967,269.598 C91.1621,262.524 104.8196,255.249 118,250 C146.91,238.487 174.7189,231.3125 202.4969,225.6495 " fill="none" id="fc-to-UC3" style="stroke:#181818;stroke-width:1.0;"/><polygon fill="#181818" points="208.376,224.451,198.7584,222.3294,203.4768,225.4498,200.3564,230.1682,208.376,224.451" style="stroke:#181818;stroke-width:1.0;"/></g><!--link fc to UC4--><g id="link_fc_UC4"><path d="M79.0075,293 C97.6757,293 115.751,293 140.335,293 " fill="none" id="fc-to-UC4" style="stroke:#181818;stroke-width:1.0;"/><polygon fill="#181818" points="146.335,293,137.335,289,141.335,293,137.335,297,146.335,293" style="stroke:#181818;stroke-width:1.0;"/></g><!--link fc to UC5--><g id="link_fc_UC5"><path d="M79.2192,316.775 C91.186,324.003 104.8386,331.485 118,337 C142.396,347.223 164.3941,353.9748 189.1901,360.1738 " fill="none" id="fc-to-UC5" style="stroke:#181818;stroke-width:1.0;"/><polygon fill="#181818" points="195.011,361.629,187.2499,355.5656,190.1603,360.4163,185.3096,363.3267,195.011,361.629" style="stroke:#181818;stroke-width:1.0;"/></g><!--link fc to UC6--><g id="link_fc_UC6"><path d="M57.4921,331.076 C69.4711,358.43 89.361,394.041 118,415 C139.664,430.854 161.5781,438.6297 187.1291,443.6387 " fill="none" id="fc-to-UC6" style="stroke:#181818;stroke-width:1.0;"/><polygon fill="#181818" points="193.017,444.793,184.9546,439.1363,188.1104,443.8311,183.4156,446.9869,193.017,444.793" style="stroke:#181818;stroke-width:1.0;"/></g><!--link fc to UC7--><g id="link_fc_UC7"><path d="M48.0415,331.008 C55.2593,374.688 73.4342,445.652 118,487 C131.53,499.5532 142.877,506.4726 160.438,512.8946 " fill="none" id="fc-to-UC7" style="stroke:#181818;stroke-width:1.0;"/><polygon fill="#181818" points="166.073,514.9553,158.9943,508.1076,161.3771,513.238,156.2467,515.6209,166.073,514.9553" style="stroke:#181818;stroke-width:1.0;"/></g><!--link UC7 to UC71--><g id="link_UC7_UC71"><path d="M387.262,536.0543 C434.046,538.0124 480.1072,539.9402 521.1322,541.6572 " fill="none" id="UC7-to-UC71" style="stroke:#181818;stroke-width:1.0;stroke-dasharray:7.0,7.0;"/><polygon fill="#181818" points="527.127,541.9081,518.3021,537.5353,522.1314,541.699,517.9676,545.5283,527.127,541.9081" style="stroke:#181818;stroke-width:1.0;"/><text fill="#000000" font-family="sans-serif" font-size="13" lengthAdjust="spacing" textLength="52" x="420" y="533.0669">includes</text></g><!--link UC7 to UC72--><g id="link_UC7_UC72"><path d="M364.601,514.8698 C423.012,505.2656 489.1605,494.3895 538.2645,486.3155 " fill="none" id="UC7-to-UC72" style="stroke:#181818;stroke-width:1.0;stroke-dasharray:7.0,7.0;"/><polygon fill="#181818" points="544.185,485.342,534.6553,482.8552,539.2512,486.1532,535.9532,490.7492,544.185,485.342" style="stroke:#181818;stroke-width:1.0;"/><text fill="#000000" font-family="sans-serif" font-size="13" lengthAdjust="spacing" textLength="52" x="420" y="494.0669">includes</text></g><!--link UC72 to UC721--><g id="link_UC72_UC721"><path d="M651.315,487.729 C675.278,493.539 704.659,500.6523 731,507 C784.984,520.0093 842.0906,533.6847 878.4616,542.3843 " fill="none" id="UC72-to-UC721" style="stroke:#181818;stroke-width:1.0;stroke-dasharray:7.0,7.0;"/><polygon fill="#181818" points="884.297,543.7801,876.4744,537.7962,879.4342,542.617,874.6134,545.5767,884.297,543.7801" style="stroke:#181818;stroke-width:1.0;"/><text fill="#000000" font-family="sans-serif" font-size="13" lengthAdjust="spacing" textLength="52" x="732" y="503.0669">includes</text></g><!--link UC72 to UC722--><g id="link_UC72_UC722"><path d="M670.975,478.4 C736.673,480.72 827.3137,483.9212 876.7797,485.6682 " fill="none" id="UC72-to-UC722" style="stroke:#181818;stroke-width:1.0;stroke-dasharray:7.0,7.0;"/><polygon fill="#181818" points="882.776,485.88,873.9228,481.5648,877.7791,485.7035,873.6404,489.5599,882.776,485.88" style="stroke:#181818;stroke-width:1.0;"/><text fill="#000000" font-family="sans-serif" font-size="13" lengthAdjust="spacing" textLength="52" x="732" y="476.0669">includes</text></g><!--link UC7 to UC73--><g id="link_UC7_UC73"><path d="M333.042,508.3524 C351.31,501.7959 371.031,494.402 389,487 C402.605,481.396 405.472,478.788 419,473 C462.811,454.255 507.7387,436.8165 544.4277,422.9855 " fill="none" id="UC7-to-UC73" style="stroke:#181818;stroke-width:1.0;stroke-dasharray:7.0,7.0;"/><polygon fill="#181818" points="550.042,420.869,540.2095,420.3008,545.3634,422.6327,543.0315,427.7866,550.042,420.869" style="stroke:#181818;stroke-width:1.0;"/><text fill="#000000" font-family="sans-serif" font-size="13" lengthAdjust="spacing" textLength="52" x="420" y="448.0669">includes</text></g><!--SRC=[TPF1Zfim54NtVCLJzZDI30cZBYfLqswgwQHjEbAtbcE89S3KVemwgle_mtVmOtraOh0fNaHokCUNUvzD9Gi4r61KUKOuAIC5AjqaNA0si7b2LIdBKNPc0zn28PAHu4rPITWSNomEhxM4amJBksTPSdEI6_YJ07HM2cu9-bhnHXLAcW0XhwVxhSyTsw4NRs3B3Q-7LpJIEZ90lmzzAmrgIWjMTqPCXYo6dQH5rV2ncsDJd_tnqauccI_Swxgj93fjvsiVLL4ClP4DAbavOkyJZxfUgPtxoAVVrBl3jVc4RMHZfIeR0kc5PkYduR1jf0bZyIOig7yS-bzTq8C5KpYqu-H0dAcnaJMH3hlpiGz5eSIP4bQwTEdILM3eaQEb9e2oRYsCVTohizKTxTiz4luP1gVnhLCuZb7enkhApI0uZaFtR9I1qN6yPtHj2IvKsHdVDJYU1rqgGME1cYBJ9iVyD_FHpQkT1xF_V3myJaAmzUUNXqbWuRr0Ed5APQ4rIXk5NCqVH9ucVvD2mCtD-yk7H3-ulRsij_0EL2EgZkvySlb_5LXCI6D2jX0o9-nYmZvcbVl259mHmwu8MmHdRYzR16VJZZGcP36hkzKOwRpCvkLkNkxdPKv- -TKkNqIUdYyIvsmIjb65HRpyaly0]--></g></svg>